<svg id="Capa_1" enable-background="new 0 0 512 512" height="512" viewBox="0 0 512 512" width="512" xmlns="http://www.w3.org/2000/svg"><g><path d="m0 0v512h512v-512zm482 30v36.5h-211.181l-38 50.833h-202.819v-87.333zm-452 452v-334.667h217.848l38-50.833h196.152v385.5z"/><path d="m62.75 56.833h30v30h-30z"/><path d="m124.292 56.833h30v30h-30z"/><path d="m185.833 56.833h30v30h-30z"/><path d="m396.502 172.623c-28.122 0-51 22.879-51 51 0 13.874 5.576 26.466 14.596 35.67l-25.273 35.969c-2.413-.352-4.879-.542-7.388-.542-11.629 0-22.355 3.921-30.944 10.498l-34.143-25.269c2.72-6.232 4.238-13.104 4.238-20.327 0-28.121-22.878-51-51-51s-51 22.879-51 51c0 7.826 1.777 15.244 4.941 21.879l-28.248 26.95c-7.608-4.516-16.478-7.119-25.948-7.119-28.122 0-51 22.879-51 51s22.878 51 51 51 51-22.879 51-51c0-7.752-1.746-15.102-4.854-21.688l28.34-27.038c7.568 4.451 16.373 7.016 25.769 7.016 9.977 0 19.286-2.891 27.155-7.862l36.309 26.872c-1.687 5.061-2.615 10.467-2.615 16.088 0 28.121 22.878 51 51 51s51-22.879 51-51c0-14.69-6.251-27.94-16.223-37.255l24.454-34.803c3.184.625 6.47.961 9.834.961 28.122 0 51-22.879 51-51s-22.878-51-51-51zm-281.169 200.71c-11.58 0-21-9.421-21-21s9.42-21 21-21 21 9.421 21 21-9.42 21-21 21zm100.256-92.71c-11.58 0-21-9.421-21-21s9.42-21 21-21 21 9.421 21 21-9.421 21-21 21zm111.849 86.098c-11.58 0-21-9.421-21-21s9.42-21 21-21 21 9.421 21 21-9.421 21-21 21zm69.064-122.098c-11.58 0-21-9.421-21-21s9.42-21 21-21 21 9.421 21 21-9.42 21-21 21z"/></g></svg>