<svg xmlns="http://www.w3.org/2000/svg" width="257.901" height="214.918" viewBox="0 0 257.901 214.918">
  <defs>
    <style>
      .cls-1 {
        fill: #2c2c2c;
      }
    </style>
  </defs>
  <g id="buisness" transform="translate(0 -2)">
    <path id="Path_25" data-name="Path 25" class="cls-1" d="M83.221,50.357A10.75,10.75,0,0,1,72.475,39.611V23.492H29.492V39.611A10.746,10.746,0,0,1,8,39.611V23.492A21.513,21.513,0,0,1,29.492,2H72.475A21.513,21.513,0,0,1,93.967,23.492V39.611A10.75,10.75,0,0,1,83.221,50.357Z" transform="translate(77.967)"/>
    <path id="Path_26" data-name="Path 26" class="cls-1" d="M136.58,52.025a22.134,22.134,0,0,1-7.63,1.29,23.547,23.547,0,0,1-8.274-1.5L0,11.62V93.611a29.534,29.534,0,0,0,29.551,29.551h198.8A29.534,29.534,0,0,0,257.9,93.611V11.62Z" transform="translate(0 93.755)"/>
    <path id="Path_27" data-name="Path 27" class="cls-1" d="M257.9,34.551V59.159L131.53,101.283a7.952,7.952,0,0,1-5.158,0L0,59.159V34.551A29.534,29.534,0,0,1,29.551,5h198.8A29.534,29.534,0,0,1,257.9,34.551Z" transform="translate(0 29.238)"/>
  </g>
</svg>
