<svg height="512pt" viewBox="0 -3 512.00033 512" width="512pt" xmlns="http://www.w3.org/2000/svg"><path d="m509.046875 365.011719c-14.144531-18.859375-34.8125-30.878907-58.199219-33.847657-23.386718-2.96875-46.40625 3.503907-64.816406 18.230469l-21.574219 17.261719c-8.691406-23.644531-28.589843-42.191406-54.175781-48.589844l-67.496094-16.875c-4.222656-3.167968-13.328125-10-21.421875-16.085937-12.003906-9.03125-26.242187-15.121094-41.164062-17.609375l-.691407-.113282c-29.589843-4.929687-59.832031 4.875-80.894531 26.230469l-6.328125 6.414063h-77.515625c-8.15625 0-14.769531 6.613281-14.769531 14.769531v157.539063c0 8.15625 6.613281 14.769531 14.769531 14.769531h83.164063l275.167968 19.65625c4.136719.292969 8.289063-1.207031 11.28125-4.078125l123.074219-118.15625c5.386719-5.167969 6.066407-13.542969 1.589844-19.515625zm-425.355469 92.554687h-54.152344v-128h54.152344zm284.96875 19.261719-255.429687-18.246094v-137.726562l6.414062-6.503907c14.320313-14.519531 34.890625-21.1875 55-17.832031l.691407.113281c10.414062 1.738282 19.925781 5.800782 28.273437 12.078126 10.984375 8.261718 23.835937 17.902343 23.835937 17.902343 1.574219 1.179688 3.371094 2.035157 5.28125 2.511719l70.390626 17.597656c16.5625 4.140625 29.273437 16.496094 34.265624 32.074219h-101.074218c-8.15625 0-14.769532 6.613281-14.769532 14.769531s6.613282 14.769532 14.769532 14.769532h118.152344c3.324218 0 6.632812-1.160157 9.226562-3.238282l40.796875-32.636718c12.113281-9.6875 27.257813-13.945313 42.640625-11.996094 11.019531 1.398437 21.121094 5.855468 29.386719 12.828125zm0 0"/><path d="m354.460938 265.847656c73.292968 0 132.921874-59.628906 132.921874-132.925781 0-73.292969-59.628906-132.921875-132.921874-132.921875-73.292969 0-132.921876 59.628906-132.921876 132.921875 0 73.296875 59.628907 132.925781 132.921876 132.925781zm103.386718-132.925781c0 51.992187-38.582031 95.136719-88.617187 102.328125v-30.542969c22.703125-6.449219 39.386719-27.351562 39.386719-52.089843v-19.695313c0-8.15625-6.613282-14.769531-14.769532-14.769531h-64v-4.921875c0-13.574219 11.039063-24.613281 24.613282-24.613281h39.386718c8.15625 0 14.769532-6.613282 14.769532-14.769532s-6.613282-14.769531-14.769532-14.769531h-24.617187v-28.480469c50.035156 7.1875 88.617187 50.332032 88.617187 102.324219zm-118.15625-102.324219v30.542969c-22.703125 6.445313-39.382812 27.351563-39.382812 52.089844v19.691406c0 8.15625 6.613281 14.769531 14.769531 14.769531h64v4.925782c0 13.570312-11.042969 24.613281-24.617187 24.613281h-39.382813c-8.15625 0-14.769531 6.613281-14.769531 14.769531s6.613281 14.769531 14.769531 14.769531h24.613281v28.480469c-50.035156-7.191406-88.613281-50.335938-88.613281-102.328125s38.578125-95.136719 88.613281-102.324219zm0 0"/></svg>