<svg xmlns="http://www.w3.org/2000/svg" width="299.995" height="299.994" viewBox="0 0 299.995 299.994">
  <defs>
    <style>
      .cls-1 {
        fill: #2c2c2c;
      }
    </style>
  </defs>
  <g id="contact" transform="translate(0 -0.001)">
    <g id="Group_13" data-name="Group 13">
      <g id="Group_12" data-name="Group 12">
        <g id="Group_11" data-name="Group 11">
          <path id="Path_28" data-name="Path 28" class="cls-1" d="M149.992,0a150,150,0,1,0,150,150A150,150,0,0,0,149.992,0Zm60.955,217.131v10.374a10.375,10.375,0,0,1-10.374,10.374H96.829A20.75,20.75,0,0,1,76.08,217.131V86.592A20.75,20.75,0,0,1,96.829,65.843H200.572a10.375,10.375,0,0,1,10.374,10.374V86.592h0v130.54ZM231.7,86.592V227.506a10.375,10.375,0,0,1-10.374,10.374h-2.806a20.592,20.592,0,0,0,2.806-10.374V76.219a20.592,20.592,0,0,0-2.806-10.374h2.806A10.375,10.375,0,0,1,231.7,76.219Z"/>
          <path id="Path_29" data-name="Path 29" class="cls-1" d="M175.591,165.517s-3.909-4.692-8.237-1.455c-3.226,2.412-9.023,7.776-10.416,9.078,0,0-9.69-5.166-15.424-9.884-8.494-6.985-14.174-15.608-17.151-20.513l-2.223-4.191c.775-.835,6.71-7.189,9.277-10.639,3.232-4.326-1.452-8.235-1.452-8.235s-13.183-13.183-16.184-15.8a6.461,6.461,0,0,0-6.461-1.167c-6.315,4.082-12.859,7.628-13.248,24.686-.013,15.969,12.109,32.438,25.215,45.188,13.131,14.4,31.162,28.833,48.588,28.817,17.055-.384,20.6-6.93,24.678-13.245a6.451,6.451,0,0,0-1.159-6.458C188.774,178.693,175.591,165.517,175.591,165.517Z"/>
        </g>
      </g>
    </g>
  </g>
</svg>
