<svg xmlns="http://www.w3.org/2000/svg" width="148.002" height="148" viewBox="0 0 148.002 148">
  <defs>
    <style>
      .cls-1 {
        fill: #2c2c2c;
      }
    </style>
  </defs>
  <g id="design" transform="translate(0 -0.004)">
    <g id="Group_2" data-name="Group 2" transform="translate(0 0.004)">
      <path id="Path_3" data-name="Path 3" class="cls-1" d="M43.648,378.348a17.344,17.344,0,1,0-34.688,0v8.672A9.186,9.186,0,0,1,0,395.981v8.672H17.633A26.293,26.293,0,0,0,43.648,378.348Z" transform="translate(0 -256.652)"/>
      <path id="Path_4" data-name="Path 4" class="cls-1" d="M243.154,125.237a4.335,4.335,0,1,0,5.31,3.066A4.33,4.33,0,0,0,243.154,125.237Z" transform="translate(-170.581 -88.931)"/>
      <path id="Path_5" data-name="Path 5" class="cls-1" d="M165.742,218.448a4.336,4.336,0,0,0,2.248-8.375h0a3.181,3.181,0,0,0-2.432.2q.074,3.92.1,8.131C165.688,218.415,165.71,218.44,165.742,218.448Z" transform="translate(-117.699 -149.237)"/>
      <path id="Path_6" data-name="Path 6" class="cls-1" d="M310.577,360.122a4.336,4.336,0,1,0-3.066,5.314,4.334,4.334,0,0,0,3.066-5.314Z" transform="translate(-214.741 -253.743)"/>
      <path id="Path_7" data-name="Path 7" class="cls-1" d="M363.258,163.55a4.339,4.339,0,1,0-6.131,0A4.347,4.347,0,0,0,363.258,163.55Z" transform="translate(-252.991 -111.01)"/>
      <path id="Path_8" data-name="Path 8" class="cls-1" d="M194.058,30.12c-14.244.513-27.319,6.144-37.741,13.293A280.455,280.455,0,0,1,158.75,73.5a13.007,13.007,0,1,1,1.569,25.921c-.417,0-.832-.125-1.248-.165-.052,6.935-.21,13.8-.509,20.35,4.441,1.845,7.912,4.3,10.179,7.487,4.59,6.449,3.366,14.011,2.884,16.179-1.608,7.2,2.638,14.533,9.913,15.934a65.61,65.61,0,0,0,12.347,1.177c35.661,0,65.538-28.967,65.248-65.517C258.828,57.8,226.749,28.888,194.058,30.12Zm15.07,31.541a13.011,13.011,0,0,1,18.4,18.4v0a13.012,13.012,0,0,1-18.4-18.4Zm-36.864,3.582a13.006,13.006,0,1,1,15.929,9.2A13,13,0,0,1,172.263,65.243Zm33.883,76.214a13.006,13.006,0,1,1,9.2-15.925A13.022,13.022,0,0,1,206.146,141.457Zm33.726-33.726a13.006,13.006,0,1,1-9.2-15.929,13,13,0,0,1,9.2,15.929Z" transform="translate(-111.132 -21.387)"/>
      <path id="Path_9" data-name="Path 9" class="cls-1" d="M392.367,272.2a4.336,4.336,0,1,0,3.066,5.31,4.333,4.333,0,0,0-3.066-5.31Z" transform="translate(-275.067 -193.415)"/>
      <path id="Path_10" data-name="Path 10" class="cls-1" d="M71.963,78.34c.012-1.451.052-2.879.052-4.336,0-33.625-2.257-74-13.008-74S46,40.379,46,74c0,1.457.04,2.885.052,4.336Z" transform="translate(-32.703 -0.004)"/>
      <path id="Path_11" data-name="Path 11" class="cls-1" d="M59.412,309.676a25.69,25.69,0,0,1,12.413,3.295c.187-3.891.33-7.9.43-11.967H46.569c.1,4.067.243,8.075.43,11.967A25.687,25.687,0,0,1,59.412,309.676Z" transform="translate(-33.108 -213.996)"/>
    </g>
  </g>
</svg>
