<svg id="Capa_1" enable-background="new 0 0 512 512" height="512" viewBox="0 0 512 512" width="512" xmlns="http://www.w3.org/2000/svg"><g><path d="m0 0v512h512v-512zm349.849 382.802c-28.033 28.033-54.706 30.309-70.954 27.985 5.163-13.885 5.162-29.318 5.162-43.493 0-16.948 0-32.957 8.664-41.621 15.75-15.75 41.377-15.75 57.128 0 15.75 15.751 15.75 41.378 0 57.129zm21.213-78.342c-.7-.7-1.419-1.371-2.142-2.036 10.081-27.62 27.69-63.37 57.414-93.095 15.609-15.608 34.274-29.232 55.666-40.676v66.967c-4.465 5.439-9.133 10.624-13.941 15.433-30.723 30.722-68.488 48.372-93.272 57.465-1.186-1.385-2.414-2.747-3.725-4.058zm110.938-274.46v36.5h-211.181l-38 50.833h-202.819v-87.333zm-452 452v-334.667h217.848l38-50.833h196.152v38.598c-29.944 14.123-55.781 31.921-76.879 53.018-31.714 31.715-51.052 69.132-62.528 99.058-24.263-7.665-51.885-1.916-71.086 17.286-17.45 17.45-17.45 41.562-17.45 62.834 0 16.949 0 32.958-8.663 41.622l-14.339 14.339 17.909 9.515c1.642.872 16.691 8.526 39.177 8.681.22.002.44.002.663.002 20.611 0 51.396-6.574 82.259-37.438 18.594-18.594 24.574-45.083 17.976-68.773 27.949-10.591 62.515-28.017 92.963-56.006v202.764z"/><path d="m62.75 56.833h30v30h-30z"/><path d="m124.292 56.833h30v30h-30z"/><path d="m185.833 56.833h30v30h-30z"/><path d="m72.621 442.452h105.406v-256.22h-105.406zm75.406-30h-45.406v-45.406h45.406zm0-75.406h-45.406v-45.407h45.406zm-45.406-120.814h45.406v45.406h-45.406z"/></g></svg>