<?xml version="1.0" encoding="iso-8859-1"?>
<!-- Generator: Adobe Illustrator 19.0.0, SVG Export Plug-In . SVG Version: 6.00 Build 0)  -->
<svg version="1.1" id="Capa_1" xmlns="http://www.w3.org/2000/svg" xmlns:xlink="http://www.w3.org/1999/xlink" x="0px" y="0px"
	 viewBox="0 0 512 512" style="enable-background:new 0 0 512 512;" xml:space="preserve">
<g>
	<g>
		<path d="M407,16H105C47.103,16,0,63.103,0,121s47.103,105,105,105h302c57.897,0,105-47.103,105-105C512,63.103,464.897,16,407,16z
			 M105,196c-41.355,0-75-33.645-75-75s33.645-75,75-75s75,33.645,75,75S146.355,196,105,196z M407,196H178.404
			C197.887,176.927,210,150.354,210,121s-12.113-55.927-31.596-75H407c41.355,0,75,33.645,75,75S448.355,196,407,196z"/>
	</g>
</g>
<g>
	<g>
		<path d="M407,286H105C47.103,286,0,333.103,0,391c0,57.897,47.103,105,105,105h302c57.897,0,105-47.103,105-105
			C512,333.103,464.897,286,407,286z M105,466c-41.355,0-75-33.645-75-75c0-41.355,33.645-75.2,75-75.2h228.596
			C314.113,334.873,302,361.646,302,391s12.113,55.927,31.596,75H105z M407,466c-41.355,0-75-33.645-75-75c0-41.355,33.645-75,75-75
			c41.355,0,75,33.645,75,75C482,432.355,448.355,466,407,466z"/>
	</g>
</g>
<g>
</g>
<g>
</g>
<g>
</g>
<g>
</g>
<g>
</g>
<g>
</g>
<g>
</g>
<g>
</g>
<g>
</g>
<g>
</g>
<g>
</g>
<g>
</g>
<g>
</g>
<g>
</g>
<g>
</g>
</svg>
