<svg id="Capa_1" enable-background="new 0 0 512 512" height="512" viewBox="0 0 512 512" width="512" xmlns="http://www.w3.org/2000/svg"><g><path d="m73.32 385.68v15h98.54v-15c0-46.39 37.74-84.14 84.14-84.14 6.44 0 12.71.75 18.74 2.13l-13.33 30.71c-1.77-.19-3.57-.3-5.4-.3-27.73 0-50.22 22.49-50.22 50.22 0 27.74 22.49 50.22 50.22 50.22 27.74 0 50.22-22.48 50.22-50.22 0-15.15-6.71-28.72-17.32-37.93l13.4-30.89c22.78 15.07 37.83 40.91 37.83 70.2v15h98.54v-15c0-100.73-81.95-182.68-182.68-182.68s-182.68 81.95-182.68 182.68zm69.518-14.998h-38.788c2.905-29.656 14.338-56.844 31.796-79.09l29.243 25.14c-11.711 15.403-19.603 33.861-22.251 53.95zm98.162-98.155c-20.43 2.694-39.175 10.804-54.735 22.847l-29.655-25.494c23.162-19.908 52.336-33.005 84.39-36.146zm15.01 131.833c-11.08 0-20.06-8.98-20.06-20.06s8.98-20.06 20.06-20.06 20.06 8.98 20.06 20.06-8.98 20.06-20.06 20.06zm151.94-33.678h-38.788c-2.648-20.088-10.54-38.546-22.251-53.95l29.243-25.14c17.458 22.246 28.891 49.434 31.796 79.09zm-136.95-136.947c32.054 3.14 61.228 16.238 84.39 36.146l-29.655 25.493c-15.56-12.043-34.305-20.153-54.735-22.847z"/><path d="m0 0v512h512v-512zm482 482h-452v-334.667h217.848l38-50.833h196.152zm0-415.5h-211.182l-38 50.833h-202.818v-87.333h452z"/><path d="m62.75 56.833h30v30h-30z"/><path d="m124.292 56.833h30v30h-30z"/><path d="m185.833 56.833h30v30h-30z"/></g></svg>