<svg id="Group_7" data-name="Group 7" xmlns="http://www.w3.org/2000/svg" width="148" height="148" viewBox="0 0 148 148">
  <defs>
    <style>
      .cls-1 {
        fill: #2c2c2c;
      }
    </style>
  </defs>
  <path id="Path_15" data-name="Path 15" class="cls-1" d="M15.1,171.016a4.966,4.966,0,0,0-4.966-4.966H4.966a4.966,4.966,0,1,0,0,9.932h5.165A4.966,4.966,0,0,0,15.1,171.016Z" transform="translate(0 -118.485)"/>
  <path id="Path_16" data-name="Path 16" class="cls-1" d="M35.755,33.455a4.971,4.971,0,0,0,3.388-8.6l-3.778-3.523A4.966,4.966,0,0,0,28.591,28.6C31.644,31.09,32.725,33.455,35.755,33.455Z" transform="translate(-18.07 -13.38)"/>
  <path id="Path_17" data-name="Path 17" class="cls-1" d="M32.369,300.693l-3.778,3.523a4.966,4.966,0,0,0,6.773,7.264l3.778-3.523a4.966,4.966,0,0,0-6.773-7.264Z" transform="translate(-18.069 -213.91)"/>
  <path id="Path_18" data-name="Path 18" class="cls-1" d="M476.528,163.951h-5.165a4.966,4.966,0,0,0,0,9.932h5.165a4.966,4.966,0,0,0,0-9.932Z" transform="translate(-333.494 -116.987)"/>
  <path id="Path_19" data-name="Path 19" class="cls-1" d="M451.929,300.694a4.966,4.966,0,1,0-6.773,7.264l3.778,3.523a4.966,4.966,0,1,0,6.773-7.264Z" transform="translate(-318.229 -213.91)"/>
  <path id="Path_20" data-name="Path 20" class="cls-1" d="M451.93,32.121l3.778-3.523a4.966,4.966,0,1,0-6.773-7.263l-3.778,3.523a4.966,4.966,0,0,0,6.773,7.263Z" transform="translate(-318.229 -13.38)"/>
  <path id="Path_21" data-name="Path 21" class="cls-1" d="M171,392.118a14.916,14.916,0,0,0,9.152,13.739h37.976a14.916,14.916,0,0,0,9.152-13.739V385H171Z" transform="translate(-125.14 -279.044)"/>
  <path id="Path_22" data-name="Path 22" class="cls-1" d="M201,484.29a4.968,4.968,0,0,0,4.966,4.966H232.45a4.968,4.968,0,0,0,4.966-4.966V478H201Z" transform="translate(-145.208 -341.256)"/>
  <path id="Path_23" data-name="Path 23" class="cls-1" d="M323.488,59.59c14.13-14.424,5.966-38.751-13.807-41.9A24.847,24.847,0,0,0,271,4.978V119.345h14.9a24.74,24.74,0,0,0,23.833-17.863C329.4,98.31,337.644,74.041,323.488,59.59ZM280.932,30.126a4.966,4.966,0,1,1,9.932,0c0,5.085,1.928,6.017,5.768,7.872,3.636,1.757,9.129,4.411,9.129,11.991a4.966,4.966,0,1,1-9.932,0c0-1.09,0-1.348-3.518-3.048-4.256-2.056-11.379-5.5-11.379-16.815Zm29.454,46.85c-5.717,7.922-14.549,11.21-17.063,11.21a4.966,4.966,0,0,1-1.363-9.741,19.454,19.454,0,0,0,10.373-7.28,4.966,4.966,0,1,1,8.054,5.812Z" transform="translate(-202.784 0)"/>
  <path id="Path_24" data-name="Path 24" class="cls-1" d="M120.589,119.345V4.978A24.846,24.846,0,0,0,81.908,17.69C62.124,20.841,53.977,45.173,68.1,59.59,53.94,74.045,62.2,98.312,81.859,101.482a24.735,24.735,0,0,0,23.833,17.863ZM94.958,38c3.84-1.856,5.768-2.787,5.768-7.872a4.966,4.966,0,0,1,9.932,0c0,11.317-7.123,14.759-11.379,16.815-3.518,1.7-3.518,1.959-3.518,3.048a4.966,4.966,0,1,1-9.932,0c0-7.58,5.494-10.234,9.129-11.991Zm8.081,46.585a4.968,4.968,0,0,1-4.772,3.6c-2.591,0-10.845-3.262-16.343-10.253a4.966,4.966,0,0,1,7.807-6.139,19.471,19.471,0,0,0,9.9,6.65A4.966,4.966,0,0,1,103.038,84.584Z" transform="translate(-40.805 0)"/>
</svg>
