<svg xmlns="http://www.w3.org/2000/svg" width="211.722" height="135.462" viewBox="0 0 211.722 135.462">
  <defs>
    <style>
      .cls-1 {
        fill: #fff;
      }
    </style>
  </defs>
  <g id="monitor" transform="translate(0 -20.78)">
    <g id="Group_11" data-name="Group 11" transform="translate(0 20.78)">
      <path id="Path_25" data-name="Path 25" class="cls-1" d="M20.23,143.722H191.492a6.428,6.428,0,0,0,6.422-6.422V27.2a6.428,6.428,0,0,0-6.422-6.422H20.23A6.429,6.429,0,0,0,13.808,27.2V137.3A6.431,6.431,0,0,0,20.23,143.722ZM19.313,27.2a.918.918,0,0,1,.917-.917H191.492a.918.918,0,0,1,.917.917V137.3a.918.918,0,0,1-.917.917H20.23a.918.918,0,0,1-.917-.917ZM211.722,148.636v5.14a2.467,2.467,0,0,1-2.466,2.466H2.466A2.467,2.467,0,0,1,0,153.775v-5.14H86.953a3.466,3.466,0,0,0,3.316,2.485h31.187a3.467,3.467,0,0,0,3.316-2.485Z" transform="translate(0 -20.78)"/>
    </g>
  </g>
</svg>
