<svg id="Capa_1" enable-background="new 0 0 512 512" height="512" viewBox="0 0 512 512" width="512" xmlns="http://www.w3.org/2000/svg"><g><path d="m0 0v512h512v-512zm482 30v36.5h-211.181l-38 50.833h-202.819v-87.333zm-452 452v-334.667h217.848l38-50.833h196.152v385.5z"/><path d="m62.75 56.833h30v30h-30z"/><path d="m124.292 56.833h30v30h-30z"/><path d="m185.833 56.833h30v30h-30z"/><path d="m299.083 214h36.454l-79.537 79.537-79.537-79.537h36.454v-30h-87.667v87.667h30v-36.454l79.537 79.537-79.537 79.537v-36.454h-30v87.667h87.667v-30h-36.454l79.537-79.537 79.537 79.537h-36.454v30h87.667v-87.667h-30v36.454l-79.537-79.537 79.537-79.537v36.454h30v-87.667h-87.667z"/></g></svg>