<svg xmlns="http://www.w3.org/2000/svg" width="148" height="148" viewBox="0 0 148 148">
  <defs>
    <style>
      .cls-1 {
        fill: #2c2c2c;
      }
    </style>
  </defs>
  <g id="responsive" transform="translate(6 -27.128)">
    <g id="Group_6" data-name="Group 6" transform="translate(-6 27.128)">
      <path id="Path_12" data-name="Path 12" class="cls-1" d="M63.738,118.571H12.092a2.253,2.253,0,0,1-2.178-2.315V26.976a2.253,2.253,0,0,1,2.178-2.314H135.9a2.252,2.252,0,0,1,2.178,2.314V46.529a21.468,21.468,0,0,1,9.914,3.793V26.976c0-7.085-5.426-12.848-12.092-12.848H12.092C5.426,14.128,0,19.891,0,26.976v89.279C0,123.341,5.426,129.1,12.092,129.1h41.5v17.223H47.047a7.915,7.915,0,0,0,0,15.8H67.92a24.688,24.688,0,0,1-4.182-13.769V118.571Z" transform="translate(0 -14.128)"/>
      <path id="Path_13" data-name="Path 13" class="cls-1" d="M270.334,241.844V230.451h-21.59v-72.77a2.7,2.7,0,0,1,2.591-2.784h48.852a2.7,2.7,0,0,1,2.59,2.784V180.2h3.681a11.508,11.508,0,0,1,6.145,1.835V157.681c0-7.351-5.57-13.33-12.417-13.33H251.335c-6.846,0-12.417,5.979-12.417,13.33v78.355c0,7.351,5.57,13.33,12.417,13.33h21.216A14.663,14.663,0,0,1,270.334,241.844Z" transform="translate(-164.609 -101.821)"/>
      <path id="Path_14" data-name="Path 14" class="cls-1" d="M391.821,273.775H367.99a6.4,6.4,0,0,0-6.151,6.6v48.447a6.4,6.4,0,0,0,6.151,6.6h23.831a6.4,6.4,0,0,0,6.151-6.6V280.379A6.4,6.4,0,0,0,391.821,273.775Zm-22.613,7.91H390.6v41.878H369.208Zm10.7,50.535a2.481,2.481,0,0,1-1.742-.747,2.833,2.833,0,0,1-.859-2.042,2.6,2.6,0,1,1,5.192,0,2.851,2.851,0,0,1-.854,2.042A2.479,2.479,0,0,1,379.908,332.219Z" transform="translate(-249.972 -188.803)"/>
    </g>
  </g>
</svg>
