<svg xmlns="http://www.w3.org/2000/svg" width="79" height="69" viewBox="0 0 79 69">
  <g id="Scroll" transform="translate(79 69) rotate(180)" fill="none">
    <path d="M29.954,16.676a11,11,0,0,1,19.093,0L69.574,52.535A11,11,0,0,1,60.028,69H18.972A11,11,0,0,1,9.426,52.535Z" stroke="none"/>
    <path d="M 39.5 20.14097213745117 C 38.97100067138672 20.14097213745117 38.24045562744141 20.31557464599609 37.76428985595703 21.14735412597656 L 17.23630905151367 57.00637054443359 C 16.76316452026367 57.83286285400391 16.97814559936523 58.54842758178711 17.24179840087891 59.003173828125 C 17.50547409057617 59.45791625976562 18.01967239379883 59.99999237060547 18.97201919555664 59.99999237060547 L 60.02798461914062 59.99999237060547 C 60.98032760620117 59.99999237060547 61.49452972412109 59.45791625976562 61.75820159912109 59.003173828125 C 62.02185440063477 58.54842758178711 62.23683547973633 57.83286285400391 61.76369094848633 57.00637054443359 L 41.23571014404297 21.14735412597656 C 40.75954437255859 20.31557464599609 40.02899932861328 20.14097213745117 39.5 20.14097213745117 M 39.5 11.14098358154297 C 43.21701049804688 11.14098358154297 46.93401718139648 12.98599243164062 49.04641723632812 16.67601013183594 L 69.57440185546875 52.53502655029297 C 73.77241516113281 59.86828231811523 68.47783660888672 68.99999237060547 60.02798461914062 68.99999237060547 L 18.97201919555664 68.99999237060547 C 10.52216339111328 68.99999237060547 5.227584838867188 59.86828231811523 9.42559814453125 52.53502655029297 L 29.95358276367188 16.67601013183594 C 32.06598281860352 12.98599243164062 35.78298950195312 11.14098358154297 39.5 11.14098358154297 Z" stroke="none" fill="#44bd32"/>
  </g>
</svg>
