<svg id="Capa_1" enable-background="new 0 0 512 512" height="512" viewBox="0 0 512 512" width="512" xmlns="http://www.w3.org/2000/svg"><g><path d="m0 0v512h512v-512zm482 30v36.5h-211.181l-38 50.833h-202.819v-87.333zm-452 452v-334.667h217.848l38-50.833h196.152v385.5z"/><path d="m62.75 56.833h30v30h-30z"/><path d="m124.292 56.833h30v30h-30z"/><path d="m185.833 56.833h30v30h-30z"/><path d="m323.72 318.974-21.449 21.449-20.845-20.844c23.122-33.176 19.921-79.259-9.652-108.831-33.192-33.193-87.2-33.193-120.393 0-33.192 33.192-33.192 87.2 0 120.393 16.596 16.597 38.396 24.895 60.196 24.895 17.045 0 34.078-5.097 48.635-15.243l20.844 20.844-21.449 21.449 48.555 48.554c8.562 8.563 19.946 13.278 32.056 13.278s23.494-4.716 32.056-13.278c17.675-17.675 17.675-46.436 0-64.11zm-151.125-9.047c-21.495-21.495-21.495-56.472 0-77.967 10.748-10.747 24.866-16.121 38.983-16.121s28.235 5.374 38.983 16.121c21.495 21.495 21.495 56.472 0 77.967-21.496 21.494-56.47 21.494-77.966 0zm178.467 100.499c-2.896 2.896-6.747 4.491-10.843 4.491-4.095 0-7.946-1.595-10.842-4.491l-27.341-27.341 21.685-21.686 27.342 27.342c5.977 5.979 5.977 15.706-.001 21.685z"/></g></svg>