<svg id="Capa_1" enable-background="new 0 0 512 512" height="512" viewBox="0 0 512 512" width="512" xmlns="http://www.w3.org/2000/svg"><g><path d="m0 0v512h512v-512zm482 30v36.5h-211.181l-38 50.833h-202.819v-87.333zm-452 452v-334.667h217.848l38-50.833h196.152v385.5z"/><path d="m62.75 56.833h30v30h-30z"/><path d="m124.292 56.833h30v30h-30z"/><path d="m185.833 56.833h30v30h-30z"/><path d="m187.36 179-47.751 52.255v95.813c0 47.699 25.768 90.814 65.647 109.843l50.744 24.212 50.744-24.212c39.879-19.028 65.647-62.144 65.647-109.843v-95.813l-47.751-52.255zm155.031 148.068c0 36.202-19.063 68.689-48.566 82.767l-37.825 18.048-37.825-18.048c-29.502-14.077-48.566-46.564-48.566-82.767v-84.171l30.976-33.897h110.83l30.976 33.897z"/><path d="m213.81 239-14.201 15.54v72.528c0 24.704 12.358 46.564 31.485 55.691l24.906 11.885 24.907-11.884c19.126-9.127 31.484-30.987 31.484-55.691v-72.529l-14.201-15.54zm68.581 88.068c0 12.802-5.923 24.568-14.404 28.615l-11.987 5.72-11.987-5.72c-8.481-4.047-14.404-15.813-14.404-28.615v-58.068h52.782z"/></g></svg>